<svg width="101" height="41" viewBox="0 0 101 41" fill="none" xmlns="http://www.w3.org/2000/svg">
<g clip-path="url(#clip0_501_5542)">
<path d="M26.459 9.58916C26.459 9.58836 26.459 9.58745 26.459 9.58664C26.459 9.3029 26.3484 9.03603 26.1474 8.83452C25.9441 8.63078 25.6735 8.51855 25.3854 8.51855L9.2879 8.51855C8.6976 8.51855 8.21618 9.00068 8.21467 9.59341C8.20871 12.0922 7.6879 16.2787 4.66556 19.1668L21.5121 19.1668C21.7122 19.1668 21.9002 19.1157 22.0557 19.0192C25.8731 16.6488 26.4531 12.0936 26.459 9.58916Z" fill="#27A857"/>
<path d="M9.28782 31.4816L25.3854 31.4816C25.6735 31.4816 25.9441 31.3694 26.1474 31.1657C26.3484 30.9641 26.459 30.6971 26.459 30.4136C26.459 30.4127 26.459 30.4118 26.459 30.411C26.453 27.9067 25.873 23.3515 22.0556 20.981C21.9001 20.8845 21.7121 20.8335 21.512 20.8335L4.66558 20.8335C7.68792 23.7216 8.20873 27.9081 8.21469 30.4069C8.2162 30.9995 8.69762 31.4816 9.28782 31.4816Z" fill="#27A857"/>
<path d="M22.7461 33.9265L22.7461 33.1481L9.28737 33.1481C7.78019 33.1481 6.5512 31.9201 6.54746 30.4106C6.54241 28.2911 6.12797 24.7963 3.78544 22.3213C4.83352 26.6019 4.1522 31.1145 3.56614 33.6862C3.49301 34.0073 3.56856 34.3391 3.77362 34.5964C3.97816 34.8528 4.28392 34.9998 4.6121 34.9998L21.6728 34.9998C22.2646 34.9999 22.7461 34.5183 22.7461 33.9265Z" fill="#27A857"/>
<path d="M9.28736 6.85172L22.7461 6.85172L22.7461 6.07334C22.7461 5.48162 22.2646 5 21.6728 5L4.6124 5C4.28411 5 3.97846 5.14707 3.77391 5.40343C3.56896 5.66051 3.4931 5.99202 3.56644 6.31364C4.1526 8.88536 4.83381 13.398 3.78573 17.6784C6.12816 15.2035 6.54251 11.7087 6.54756 9.58921C6.5512 8.07981 7.78019 6.85172 9.28736 6.85172Z" fill="#27A857"/>
</g>
<path d="M41.82 30.27C39.72 30.27 37.89 29.83 36.33 28.95C34.79 28.05 33.6 26.79 32.76 25.17C31.92 23.53 31.5 21.61 31.5 19.41C31.5 17.21 31.92 15.3 32.76 13.68C33.6 12.04 34.79 10.78 36.33 9.9C37.89 9.02 39.72 8.58 41.82 8.58C43.92 8.58 45.74 9.02 47.28 9.9C48.84 10.78 50.04 12.04 50.88 13.68C51.72 15.3 52.14 17.21 52.14 19.41C52.14 21.61 51.72 23.53 50.88 25.17C50.04 26.79 48.84 28.05 47.28 28.95C45.74 29.83 43.92 30.27 41.82 30.27ZM41.82 26.64C43.58 26.64 44.96 26.02 45.96 24.78C46.98 23.54 47.49 21.75 47.49 19.41C47.49 17.07 46.99 15.29 45.99 14.07C44.99 12.83 43.6 12.21 41.82 12.21C40.04 12.21 38.65 12.83 37.65 14.07C36.67 15.29 36.18 17.07 36.18 19.41C36.18 21.75 36.68 23.54 37.68 24.78C38.68 26.02 40.06 26.64 41.82 26.64ZM66.9333 30.27C64.8333 30.27 63.0033 29.83 61.4433 28.95C59.9033 28.05 58.7133 26.79 57.8733 25.17C57.0333 23.53 56.6133 21.61 56.6133 19.41C56.6133 17.21 57.0333 15.3 57.8733 13.68C58.7133 12.04 59.9033 10.78 61.4433 9.9C63.0033 9.02 64.8333 8.58 66.9333 8.58C69.0333 8.58 70.8533 9.02 72.3933 9.9C73.9533 10.78 75.1533 12.04 75.9933 13.68C76.8333 15.3 77.2533 17.21 77.2533 19.41C77.2533 21.61 76.8333 23.53 75.9933 25.17C75.1533 26.79 73.9533 28.05 72.3933 28.95C70.8533 29.83 69.0333 30.27 66.9333 30.27ZM66.9333 26.64C68.6933 26.64 70.0733 26.02 71.0733 24.78C72.0933 23.54 72.6033 21.75 72.6033 19.41C72.6033 17.07 72.1033 15.29 71.1033 14.07C70.1033 12.83 68.7133 12.21 66.9333 12.21C65.1533 12.21 63.7633 12.83 62.7633 14.07C61.7833 15.29 61.2933 17.07 61.2933 19.41C61.2933 21.75 61.7933 23.54 62.7933 24.78C63.7933 26.02 65.1733 26.64 66.9333 26.64ZM99.4566 26.49C99.9166 26.95 100.147 27.45 100.147 27.99C100.147 28.55 99.9266 29.04 99.4866 29.46C99.0666 29.88 98.5766 30.09 98.0166 30.09C97.3766 30.09 96.8066 29.83 96.3066 29.31L87.0066 20.22V27.84C87.0066 28.56 86.7966 29.13 86.3766 29.55C85.9566 29.97 85.3866 30.18 84.6666 30.18C83.9466 30.18 83.3766 29.97 82.9566 29.55C82.5366 29.13 82.3266 28.56 82.3266 27.84V11.01C82.3266 10.31 82.5366 9.75 82.9566 9.33C83.3766 8.91 83.9466 8.7 84.6666 8.7C85.3866 8.7 85.9566 8.91 86.3766 9.33C86.7966 9.75 87.0066 10.31 87.0066 11.01V18.18L96.0666 9.39C96.5066 8.95 97.0066 8.73 97.5666 8.73C98.1266 8.73 98.6166 8.94 99.0366 9.36C99.4566 9.76 99.6666 10.24 99.6666 10.8C99.6666 11.38 99.4266 11.9 98.9466 12.36L91.8066 19.05L99.4566 26.49Z" fill="#27A857"/>
<defs>
<clipPath id="clip0_501_5542">
<rect width="30" height="30" fill="white" transform="translate(30 5) rotate(90)"/>
</clipPath>
</defs>
</svg>
